<svg xmlns="http://www.w3.org/2000/svg" viewBox="0 0 64 64" role="img" aria-label="Piper strawberry mark">
  <rect width="64" height="64" rx="14" fill="#071126"/>
  <path d="M32 53C19 45 12 35 15 25c2-8 11-11 17-5 6-6 15-3 17 5 3 10-4 20-17 28Z" fill="#A72446" stroke="#F3D08A" stroke-width="2"/>
  <path d="M23 19c2-6 7-8 9-8s7 2 9 8c-4-2-7-1-9 2-2-3-5-4-9-2Z" fill="#6F9C7E" stroke="#F3D08A" stroke-width="1.5"/>
  <g fill="#F3D08A"><circle cx="25" cy="29" r="1.3"/><circle cx="38" cy="29" r="1.3"/><circle cx="31" cy="37" r="1.3"/><circle cx="23" cy="39" r="1.3"/><circle cx="40" cy="40" r="1.3"/></g>
</svg>
